<?xml version="1.0" standalone="no"?>
<!DOCTYPE svg PUBLIC "-//W3C//DTD SVG 20010904//EN"
 "http://www.w3.org/TR/2001/REC-SVG-20010904/DTD/svg10.dtd">
<svg version="1.0" xmlns="http://www.w3.org/2000/svg"
 width="512.000000pt" height="512.000000pt" viewBox="0 0 512.000000 512.000000"
 preserveAspectRatio="xMidYMid meet">

<g transform="translate(0.000000,512.000000) scale(0.100000,-0.100000)"
fill="#000000" stroke="none">
<path d="M1027 2989 c-35 -21 -47 -64 -47 -174 0 -156 20 -185 128 -185 l59 0
46 179 c26 99 47 182 47 185 0 10 -214 6 -233 -5z"/>
<path d="M3862 2983 c3 -10 24 -93 48 -185 l43 -168 59 0 c108 0 128 29 128
185 0 112 -12 155 -49 175 -11 5 -68 10 -127 10 -96 0 -106 -2 -102 -17z"/>
<path d="M1170 1271 c0 -204 -14 -191 210 -191 224 0 210 -13 210 191 l0 159
-210 0 -210 0 0 -159z"/>
<path d="M3530 1277 c0 -116 3 -158 14 -173 13 -17 30 -19 186 -22 235 -5 220
-17 220 188 l0 160 -210 0 -210 0 0 -153z"/>
</g>
</svg>
